<svg width="20" height="21" viewBox="0 0 20 21" fill="none" xmlns="http://www.w3.org/2000/svg">
<g clip-path="url(#clip0_1604_117)">
<path d="M9.99984 2.16669C14.5998 2.16669 18.3332 5.90002 18.3332 10.5C18.3332 15.1 14.5998 18.8334 9.99984 18.8334C5.39984 18.8334 1.6665 15.1 1.6665 10.5C1.6665 5.90002 5.39984 2.16669 9.99984 2.16669ZM9.99984 13.8334C11.844 13.8334 13.3332 12.3442 13.3332 10.5C13.3332 8.65585 11.844 7.16669 9.99984 7.16669C8.15567 7.16669 6.6665 8.65585 6.6665 10.5C6.6665 12.3442 8.15567 13.8334 9.99984 13.8334ZM9.99984 9.66669C10.4582 9.66669 10.8332 10.0417 10.8332 10.5C10.8332 10.9584 10.4582 11.3334 9.99984 11.3334C9.5415 11.3334 9.1665 10.9584 9.1665 10.5C9.1665 10.0417 9.5415 9.66669 9.99984 9.66669Z" fill="white"/>
</g>
<defs>
<clipPath id="clip0_1604_117">
<rect width="20" height="20" fill="white" transform="translate(0 0.5)"/>
</clipPath>
</defs>
</svg>
