<svg width="20" height="21" viewBox="0 0 20 21" fill="none" xmlns="http://www.w3.org/2000/svg">
<g clip-path="url(#clip0_1604_117)">
<path d="M9.99984 17.1667C11.7679 17.1667 13.4636 16.4643 14.7139 15.2141C15.9641 13.9638 16.6665 12.2681 16.6665 10.5C16.6665 8.73191 15.9641 7.03622 14.7139 5.78598C13.4636 4.53573 11.7679 3.83335 9.99984 3.83335C8.23173 3.83335 6.53603 4.53573 5.28579 5.78598C4.03555 7.03622 3.33317 8.73191 3.33317 10.5C3.33317 12.2681 4.03555 13.9638 5.28579 15.2141C6.53603 16.4643 8.23173 17.1667 9.99984 17.1667V17.1667ZM9.99984 18.8334C5.39734 18.8334 1.6665 15.1025 1.6665 10.5C1.6665 5.89752 5.39734 2.16669 9.99984 2.16669C14.6023 2.16669 18.3332 5.89752 18.3332 10.5C18.3332 15.1025 14.6023 18.8334 9.99984 18.8334ZM9.99984 12.1667C10.4419 12.1667 10.8658 11.9911 11.1783 11.6785C11.4909 11.366 11.6665 10.942 11.6665 10.5C11.6665 10.058 11.4909 9.63407 11.1783 9.32151C10.8658 9.00895 10.4419 8.83335 9.99984 8.83335C9.55781 8.83335 9.13389 9.00895 8.82133 9.32151C8.50877 9.63407 8.33317 10.058 8.33317 10.5C8.33317 10.942 8.50877 11.366 8.82133 11.6785C9.13389 11.9911 9.55781 12.1667 9.99984 12.1667ZM9.99984 13.8334C9.11578 13.8334 8.26794 13.4822 7.64281 12.857C7.01769 12.2319 6.6665 11.3841 6.6665 10.5C6.6665 9.61597 7.01769 8.76812 7.64281 8.143C8.26794 7.51788 9.11578 7.16669 9.99984 7.16669C10.8839 7.16669 11.7317 7.51788 12.3569 8.143C12.982 8.76812 13.3332 9.61597 13.3332 10.5C13.3332 11.3841 12.982 12.2319 12.3569 12.857C11.7317 13.4822 10.8839 13.8334 9.99984 13.8334Z" fill="white"/>
</g>
<defs>
<clipPath id="clip0_1604_117">
<rect width="20" height="20" fill="white" transform="translate(0 0.5)"/>
</clipPath>
</defs>
</svg>
