<svg width="20" height="21" viewBox="0 0 20 21" fill="none" xmlns="http://www.w3.org/2000/svg">
<g clip-path="url(#clip0_1604_117)">
<path d="M4.8565 6.33333L6.96984 8.44667L5.7915 9.625L1.6665 5.5L5.7915 1.375L6.96984 2.55333L4.8565 4.66667H10.8332C12.6013 4.66667 14.297 5.36905 15.5472 6.61929C16.7975 7.86953 17.4998 9.56522 17.4998 11.3333C17.4998 13.1014 16.7975 14.7971 15.5472 16.0474C14.297 17.2976 12.6013 18 10.8332 18H3.33317V16.3333H10.8332C12.1593 16.3333 13.431 15.8066 14.3687 14.8689C15.3064 13.9312 15.8332 12.6594 15.8332 11.3333C15.8332 10.0073 15.3064 8.73548 14.3687 7.7978C13.431 6.86012 12.1593 6.33333 10.8332 6.33333H4.8565Z" fill="white"/>
</g>
<defs>
<clipPath id="clip0_1604_117">
<rect width="20" height="20" fill="white" transform="translate(0 0.5)"/>
</clipPath>
</defs>
</svg>
