<svg width="20" height="20" viewBox="0 0 20 20" fill="none" xmlns="http://www.w3.org/2000/svg">
<g clip-path="url(#clip0_1661_262)">
<path d="M9.99984 18.3333C5.39734 18.3333 1.6665 14.6025 1.6665 9.99996C1.6665 5.39746 5.39734 1.66663 9.99984 1.66663C14.6023 1.66663 18.3332 5.39746 18.3332 9.99996C18.3332 14.6025 14.6023 18.3333 9.99984 18.3333ZM9.99984 16.6666C11.7679 16.6666 13.4636 15.9642 14.7139 14.714C15.9641 13.4638 16.6665 11.7681 16.6665 9.99996C16.6665 8.23185 15.9641 6.53616 14.7139 5.28591C13.4636 4.03567 11.7679 3.33329 9.99984 3.33329C8.23173 3.33329 6.53603 4.03567 5.28579 5.28591C4.03555 6.53616 3.33317 8.23185 3.33317 9.99996C3.33317 11.7681 4.03555 13.4638 5.28579 14.714C6.53603 15.9642 8.23173 16.6666 9.99984 16.6666V16.6666ZM5.83317 14.1666C5.83317 13.0616 6.27216 12.0017 7.05356 11.2203C7.83496 10.4389 8.89477 9.99996 9.99984 9.99996C11.1049 9.99996 12.1647 10.4389 12.9461 11.2203C13.7275 12.0017 14.1665 13.0616 14.1665 14.1666H12.4998C12.4998 13.5036 12.2364 12.8677 11.7676 12.3989C11.2988 11.93 10.6629 11.6666 9.99984 11.6666C9.3368 11.6666 8.70091 11.93 8.23207 12.3989C7.76323 12.8677 7.49984 13.5036 7.49984 14.1666H5.83317ZM6.6665 9.16663C6.33498 9.16663 6.01704 9.03493 5.78262 8.80051C5.5482 8.56609 5.4165 8.24815 5.4165 7.91663C5.4165 7.58511 5.5482 7.26716 5.78262 7.03274C6.01704 6.79832 6.33498 6.66663 6.6665 6.66663C6.99802 6.66663 7.31597 6.79832 7.55039 7.03274C7.78481 7.26716 7.9165 7.58511 7.9165 7.91663C7.9165 8.24815 7.78481 8.56609 7.55039 8.80051C7.31597 9.03493 6.99802 9.16663 6.6665 9.16663ZM13.3332 9.16663C13.0017 9.16663 12.6837 9.03493 12.4493 8.80051C12.2149 8.56609 12.0832 8.24815 12.0832 7.91663C12.0832 7.58511 12.2149 7.26716 12.4493 7.03274C12.6837 6.79832 13.0017 6.66663 13.3332 6.66663C13.6647 6.66663 13.9826 6.79832 14.2171 7.03274C14.4515 7.26716 14.5832 7.58511 14.5832 7.91663C14.5832 8.24815 14.4515 8.56609 14.2171 8.80051C13.9826 9.03493 13.6647 9.16663 13.3332 9.16663Z" fill="white"/>
</g>
<defs>
<clipPath id="clip0_1661_262">
<rect width="20" height="20" fill="white"/>
</clipPath>
</defs>
</svg>
