<svg width="20" height="21" viewBox="0 0 20 21" fill="none" xmlns="http://www.w3.org/2000/svg">
<g clip-path="url(#clip0_1604_117)">
<path d="M1.6665 18.8333C1.6665 17.0652 2.36888 15.3695 3.61913 14.1193C4.86937 12.869 6.56506 12.1666 8.33317 12.1666C10.1013 12.1666 11.797 12.869 13.0472 14.1193C14.2975 15.3695 14.9998 17.0652 14.9998 18.8333H13.3332C13.3332 17.5072 12.8064 16.2355 11.8687 15.2978C10.931 14.3601 9.65925 13.8333 8.33317 13.8333C7.00709 13.8333 5.73532 14.3601 4.79764 15.2978C3.85995 16.2355 3.33317 17.5072 3.33317 18.8333H1.6665ZM8.33317 11.3333C5.57067 11.3333 3.33317 9.09581 3.33317 6.33331C3.33317 3.57081 5.57067 1.33331 8.33317 1.33331C11.0957 1.33331 13.3332 3.57081 13.3332 6.33331C13.3332 9.09581 11.0957 11.3333 8.33317 11.3333ZM8.33317 9.66665C10.1748 9.66665 11.6665 8.17498 11.6665 6.33331C11.6665 4.49165 10.1748 2.99998 8.33317 2.99998C6.4915 2.99998 4.99984 4.49165 4.99984 6.33331C4.99984 8.17498 6.4915 9.66665 8.33317 9.66665ZM15.2365 12.7525C16.4076 13.2799 17.4015 14.1343 18.0987 15.2131C18.7958 16.2918 19.1666 17.5489 19.1665 18.8333H17.4998C17.5 17.87 17.222 16.9271 16.6991 16.118C16.1762 15.3089 15.4307 14.668 14.5523 14.2725L15.2357 12.7525H15.2365ZM14.6632 3.34415C15.5028 3.69023 16.2206 4.27793 16.7257 5.03267C17.2307 5.78742 17.5002 6.67518 17.4998 7.58331C17.5002 8.72692 17.0729 9.82934 16.302 10.674C15.531 11.5187 14.4721 12.0445 13.3332 12.1483V10.4708C13.9506 10.3824 14.5235 10.0983 14.9676 9.66036C15.4117 9.22239 15.7037 8.65358 15.8008 8.03742C15.8979 7.42127 15.7948 6.79023 15.5068 6.23694C15.2188 5.68365 14.761 5.23727 14.2007 4.96331L14.6632 3.34415V3.34415Z" fill="white"/>
</g>
<defs>
<clipPath id="clip0_1604_117">
<rect width="20" height="20" fill="white" transform="translate(0 0.5)"/>
</clipPath>
</defs>
</svg>
