<svg width="20" height="21" viewBox="0 0 20 21" fill="none" xmlns="http://www.w3.org/2000/svg">
<g clip-path="url(#clip0_1604_117)">
<path d="M13.7498 3C16.2815 3 18.3332 5.08333 18.3332 8C18.3332 13.8333 12.0832 17.1667 9.99984 18.4167C7.9165 17.1667 1.6665 13.8333 1.6665 8C1.6665 5.08333 3.74984 3 6.24984 3C7.79984 3 9.1665 3.83333 9.99984 4.66667C10.8332 3.83333 12.1998 3 13.7498 3ZM10.7782 16.0033C11.5123 15.54 12.1748 15.0792 12.7948 14.5858C15.279 12.6108 16.6665 10.4525 16.6665 8C16.6665 6.03333 15.3857 4.66667 13.7498 4.66667C12.8532 4.66667 11.8832 5.14167 11.1782 5.845L9.99984 7.02333L8.8215 5.845C8.1165 5.14167 7.1465 4.66667 6.24984 4.66667C4.63317 4.66667 3.33317 6.04667 3.33317 8C3.33317 10.4533 4.7215 12.6108 7.204 14.5858C7.82484 15.0792 8.48734 15.54 9.2215 16.0025C9.47067 16.16 9.71734 16.3108 9.99984 16.4792C10.2823 16.3108 10.529 16.16 10.7782 16.0033V16.0033Z" fill="white"/>
</g>
<defs>
<clipPath id="clip0_1604_117">
<rect width="20" height="20" fill="white" transform="translate(0 0.5)"/>
</clipPath>
</defs>
</svg>
