<svg width="20" height="21" viewBox="0 0 20 21" fill="none" xmlns="http://www.w3.org/2000/svg">
<g clip-path="url(#clip0_1604_117)">
<path d="M15.8335 18H4.16683C3.94582 18 3.73385 17.9122 3.57757 17.7559C3.42129 17.5996 3.3335 17.3877 3.3335 17.1666V9.66664H0.833496L9.43933 1.84331C9.59275 1.70371 9.79273 1.62634 10.0002 1.62634C10.2076 1.62634 10.4076 1.70371 10.561 1.84331L19.1668 9.66664H16.6668V17.1666C16.6668 17.3877 16.579 17.5996 16.4228 17.7559C16.2665 17.9122 16.0545 18 15.8335 18ZM5.00016 16.3333H15.0002V8.13081L10.0002 3.58581L5.00016 8.13081V16.3333Z" fill="white"/>
</g>
<defs>
<clipPath id="clip0_1604_117">
<rect width="20" height="20" fill="white" transform="translate(0 0.5)"/>
</clipPath>
</defs>
</svg>
