<svg width="20" height="21" viewBox="0 0 20 21" fill="none" xmlns="http://www.w3.org/2000/svg">
<g clip-path="url(#clip0_1604_117)">
<path d="M3.3335 15.5H5.00016V17.1667H15.0002V3.83335H5.00016V5.50002H3.3335V3.00002C3.3335 2.77901 3.42129 2.56704 3.57757 2.41076C3.73385 2.25448 3.94582 2.16669 4.16683 2.16669H15.8335C16.0545 2.16669 16.2665 2.25448 16.4228 2.41076C16.579 2.56704 16.6668 2.77901 16.6668 3.00002V18C16.6668 18.221 16.579 18.433 16.4228 18.5893C16.2665 18.7456 16.0545 18.8334 15.8335 18.8334H4.16683C3.94582 18.8334 3.73385 18.7456 3.57757 18.5893C3.42129 18.433 3.3335 18.221 3.3335 18V15.5ZM5.00016 9.66669H10.8335V11.3334H5.00016V13.8334L0.833496 10.5L5.00016 7.16669V9.66669Z" fill="white"/>
</g>
<defs>
<clipPath id="clip0_1604_117">
<rect width="20" height="20" fill="white" transform="translate(0 0.5)"/>
</clipPath>
</defs>
</svg>
