<svg width="20" height="21" viewBox="0 0 20 21" fill="none" xmlns="http://www.w3.org/2000/svg">
<g clip-path="url(#clip0_1604_117)">
<path d="M16.6668 3V14.6667C16.6667 15.4004 16.4244 16.1136 15.9776 16.6956C15.5308 17.2777 14.9045 17.696 14.1957 17.8858C13.4869 18.0756 12.7353 18.0262 12.0575 17.7453C11.3796 17.4644 10.8134 16.9677 10.4466 16.3323C10.0798 15.6968 9.93289 14.958 10.0287 14.2306C10.1246 13.5031 10.4577 12.8276 10.9766 12.3088C11.4955 11.79 12.171 11.4568 12.8985 11.3611C13.626 11.2653 14.3647 11.4123 15.0002 11.7792V4.66667H7.50017V14.6667C7.5 15.4004 7.25774 16.1136 6.81095 16.6956C6.36415 17.2777 5.7378 17.696 5.02902 17.8858C4.32024 18.0756 3.56865 18.0262 2.89079 17.7453C2.21293 17.4644 1.6467 16.9677 1.2799 16.3323C0.913093 15.6968 0.76622 14.958 0.862055 14.2306C0.957889 13.5031 1.29108 12.8276 1.80994 12.3088C2.32881 11.79 3.00437 11.4568 3.73184 11.3611C4.45931 11.2653 5.19806 11.4123 5.8335 11.7792V3H16.6668ZM4.16683 16.3333C4.60886 16.3333 5.03278 16.1577 5.34535 15.8452C5.65791 15.5326 5.8335 15.1087 5.8335 14.6667C5.8335 14.2246 5.65791 13.8007 5.34535 13.4882C5.03278 13.1756 4.60886 13 4.16683 13C3.72481 13 3.30088 13.1756 2.98832 13.4882C2.67576 13.8007 2.50017 14.2246 2.50017 14.6667C2.50017 15.1087 2.67576 15.5326 2.98832 15.8452C3.30088 16.1577 3.72481 16.3333 4.16683 16.3333V16.3333ZM13.3335 16.3333C13.7755 16.3333 14.1994 16.1577 14.512 15.8452C14.8246 15.5326 15.0002 15.1087 15.0002 14.6667C15.0002 14.2246 14.8246 13.8007 14.512 13.4882C14.1994 13.1756 13.7755 13 13.3335 13C12.8915 13 12.4675 13.1756 12.155 13.4882C11.8424 13.8007 11.6668 14.2246 11.6668 14.6667C11.6668 15.1087 11.8424 15.5326 12.155 15.8452C12.4675 16.1577 12.8915 16.3333 13.3335 16.3333Z" fill="white"/>
</g>
<defs>
<clipPath id="clip0_1604_117">
<rect width="20" height="20" fill="white" transform="translate(0 0.5)"/>
</clipPath>
</defs>
</svg>
