<svg width="20" height="21" viewBox="0 0 20 21" fill="none" xmlns="http://www.w3.org/2000/svg">
<g clip-path="url(#clip0_1604_117)">
<path d="M15.0257 14.3475L18.5948 17.9159L17.4157 19.095L13.8473 15.5259C12.5196 16.5902 10.8682 17.1691 9.1665 17.1667C5.0265 17.1667 1.6665 13.8067 1.6665 9.66669C1.6665 5.52669 5.0265 2.16669 9.1665 2.16669C13.3065 2.16669 16.6665 5.52669 16.6665 9.66669C16.6689 11.3684 16.09 13.0198 15.0257 14.3475ZM13.354 13.7292C14.4116 12.6416 15.0022 11.1837 14.9998 9.66669C14.9998 6.44335 12.389 3.83335 9.1665 3.83335C5.94317 3.83335 3.33317 6.44335 3.33317 9.66669C3.33317 12.8892 5.94317 15.5 9.1665 15.5C10.6835 15.5024 12.1414 14.9118 13.229 13.8542L13.354 13.7292V13.7292ZM10.1482 6.48002C9.90245 6.59102 9.68732 6.75998 9.52125 6.9724C9.35518 7.18482 9.24313 7.43436 9.19471 7.69961C9.14629 7.96486 9.16294 8.2379 9.24325 8.4953C9.32355 8.75269 9.46511 8.98677 9.65577 9.17742C9.84643 9.36808 10.0805 9.50964 10.3379 9.58994C10.5953 9.67025 10.8683 9.68691 11.1336 9.63849C11.3988 9.59006 11.6484 9.47801 11.8608 9.31194C12.0732 9.14587 12.2422 8.93075 12.3532 8.68502C12.5722 9.39637 12.5468 10.1606 12.2811 10.8558C12.0154 11.5511 11.5246 12.1374 10.887 12.5214C10.2494 12.9053 9.50157 13.0648 8.76277 12.9745C8.02397 12.8841 7.33667 12.5491 6.81037 12.0228C6.28407 11.4965 5.94906 10.8092 5.85871 10.0704C5.76836 9.33162 5.92788 8.58384 6.31184 7.94622C6.69581 7.30861 7.28213 6.81784 7.97738 6.55212C8.67263 6.2864 9.43682 6.26102 10.1482 6.48002V6.48002Z" fill="white"/>
</g>
<defs>
<clipPath id="clip0_1604_117">
<rect width="20" height="20" fill="white" transform="translate(0 0.5)"/>
</clipPath>
</defs>
</svg>
