<svg width="20" height="21" viewBox="0 0 20 21" fill="none" xmlns="http://www.w3.org/2000/svg">
<g clip-path="url(#clip0_1604_117)">
<path d="M3.3335 18.8333C3.3335 17.0652 4.03588 15.3695 5.28612 14.1193C6.53636 12.869 8.23205 12.1666 10.0002 12.1666C11.7683 12.1666 13.464 12.869 14.7142 14.1193C15.9645 15.3695 16.6668 17.0652 16.6668 18.8333H15.0002C15.0002 17.5072 14.4734 16.2355 13.5357 15.2978C12.598 14.3601 11.3262 13.8333 10.0002 13.8333C8.67408 13.8333 7.40231 14.3601 6.46463 15.2978C5.52695 16.2355 5.00016 17.5072 5.00016 18.8333H3.3335ZM10.0002 11.3333C7.23766 11.3333 5.00016 9.09581 5.00016 6.33331C5.00016 3.57081 7.23766 1.33331 10.0002 1.33331C12.7627 1.33331 15.0002 3.57081 15.0002 6.33331C15.0002 9.09581 12.7627 11.3333 10.0002 11.3333ZM10.0002 9.66665C11.8418 9.66665 13.3335 8.17498 13.3335 6.33331C13.3335 4.49165 11.8418 2.99998 10.0002 2.99998C8.1585 2.99998 6.66683 4.49165 6.66683 6.33331C6.66683 8.17498 8.1585 9.66665 10.0002 9.66665Z" fill="white"/>
</g>
<defs>
<clipPath id="clip0_1604_117">
<rect width="20" height="20" fill="white" transform="translate(0 0.5)"/>
</clipPath>
</defs>
</svg>
